<svg width="5" height="12" viewBox="0 0 5 12" fill="none" xmlns="http://www.w3.org/2000/svg">
<path id="i" d="M0.69376 11.185V10.5192L1.45876 10.3492C1.4682 10.0092 1.47293 9.64083 1.47293 9.24417C1.47293 8.8475 1.47293 8.50278 1.47293 8.21V7.53C1.47293 7.14278 1.4682 6.82167 1.45876 6.56667C1.45876 6.30222 1.44932 6.02833 1.43043 5.745L0.552094 5.6175V5.065L3.52709 4.11583L3.76793 4.27167L3.72543 6.32583V8.21C3.72543 8.50278 3.72543 8.85222 3.72543 9.25833C3.72543 9.655 3.73015 10.0281 3.73959 10.3775L4.44793 10.5192V11.185H0.69376ZM2.57793 3.0675C2.24737 3.0675 1.96404 2.96361 1.72793 2.75583C1.49182 2.53861 1.37376 2.26944 1.37376 1.94833C1.37376 1.61778 1.49182 1.34861 1.72793 1.14083C1.96404 0.92361 2.24737 0.814999 2.57793 0.814999C2.90848 0.814999 3.19182 0.92361 3.42793 1.14083C3.66404 1.34861 3.78209 1.61778 3.78209 1.94833C3.78209 2.26944 3.66404 2.53861 3.42793 2.75583C3.19182 2.96361 2.90848 3.0675 2.57793 3.0675Z" fill="#AEB9D2"/>
</svg>
